<svg id="visual" viewBox="0 0 900 300" width="900" height="300" xmlns="http://www.w3.org/2000/svg" xmlns:xlink="http://www.w3.org/1999/xlink" version="1.1"><rect x="0" y="0" width="900" height="300" fill="#202731"></rect><path d="M0 158L21.5 161.8C43 165.7 86 173.3 128.8 176.7C171.7 180 214.3 179 257.2 189.2C300 199.3 343 220.7 385.8 224.2C428.7 227.7 471.3 213.3 514.2 201C557 188.7 600 178.3 642.8 185.2C685.7 192 728.3 216 771.2 229C814 242 857 244 878.5 245L900 246L900 0L878.5 0C857 0 814 0 771.2 0C728.3 0 685.7 0 642.8 0C600 0 557 0 514.2 0C471.3 0 428.7 0 385.8 0C343 0 300 0 257.2 0C214.3 0 171.7 0 128.8 0C86 0 43 0 21.5 0L0 0Z" fill="#ff6f62"></path><path d="M0 180L21.5 178.2C43 176.3 86 172.7 128.8 172.5C171.7 172.3 214.3 175.7 257.2 176.7C300 177.7 343 176.3 385.8 179.3C428.7 182.3 471.3 189.7 514.2 187C557 184.3 600 171.7 642.8 169.2C685.7 166.7 728.3 174.3 771.2 176.7C814 179 857 176 878.5 174.5L900 173L900 0L878.5 0C857 0 814 0 771.2 0C728.3 0 685.7 0 642.8 0C600 0 557 0 514.2 0C471.3 0 428.7 0 385.8 0C343 0 300 0 257.2 0C214.3 0 171.7 0 128.8 0C86 0 43 0 21.5 0L0 0Z" fill="#f76455"></path><path d="M0 108L21.5 109.3C43 110.7 86 113.3 128.8 111.8C171.7 110.3 214.3 104.7 257.2 105.7C300 106.7 343 114.3 385.8 120.2C428.7 126 471.3 130 514.2 134.5C557 139 600 144 642.8 147.8C685.7 151.7 728.3 154.3 771.2 153.8C814 153.3 857 149.7 878.5 147.8L900 146L900 0L878.5 0C857 0 814 0 771.2 0C728.3 0 685.7 0 642.8 0C600 0 557 0 514.2 0C471.3 0 428.7 0 385.8 0C343 0 300 0 257.2 0C214.3 0 171.7 0 128.8 0C86 0 43 0 21.5 0L0 0Z" fill="#ee5849"></path><path d="M0 80L21.5 81.7C43 83.3 86 86.7 128.8 83.8C171.7 81 214.3 72 257.2 68.8C300 65.7 343 68.3 385.8 70.7C428.7 73 471.3 75 514.2 76.8C557 78.7 600 80.3 642.8 81.8C685.7 83.3 728.3 84.7 771.2 87C814 89.3 857 92.7 878.5 94.3L900 96L900 0L878.5 0C857 0 814 0 771.2 0C728.3 0 685.7 0 642.8 0C600 0 557 0 514.2 0C471.3 0 428.7 0 385.8 0C343 0 300 0 257.2 0C214.3 0 171.7 0 128.8 0C86 0 43 0 21.5 0L0 0Z" fill="#e64c3d"></path><path d="M0 25L21.5 27.2C43 29.3 86 33.7 128.8 33.8C171.7 34 214.3 30 257.2 33.3C300 36.7 343 47.3 385.8 50.7C428.7 54 471.3 50 514.2 49.7C557 49.3 600 52.7 642.8 56.8C685.7 61 728.3 66 771.2 66.7C814 67.3 857 63.7 878.5 61.8L900 60L900 0L878.5 0C857 0 814 0 771.2 0C728.3 0 685.7 0 642.8 0C600 0 557 0 514.2 0C471.3 0 428.7 0 385.8 0C343 0 300 0 257.2 0C214.3 0 171.7 0 128.8 0C86 0 43 0 21.5 0L0 0Z" fill="#dd3f31"></path></svg>